<svg width="16" height="16" viewBox="0 0 16 16" fill="none" xmlns="http://www.w3.org/2000/svg">
<path d="M6.16071 14.8669C6.02139 14.7276 5.95397 14.5658 5.95397 14.3815V9.3657H1.073C0.888731 9.3657 0.726931 9.29828 0.587603 9.15896C0.448276 9.01963 0.380859 8.85783 0.380859 8.67356V6.53869C0.380859 6.33644 0.443781 6.16566 0.57412 6.02633C0.704459 5.887 0.870753 5.81958 1.073 5.81958H5.95397V0.965582C5.95397 0.763332 6.02139 0.597038 6.16071 0.466699C6.30004 0.33636 6.46184 0.273438 6.64611 0.273438H9.02817C9.23042 0.273438 9.40121 0.340854 9.54054 0.466699C9.67986 0.597038 9.74728 0.763332 9.74728 0.965582V5.81509H14.5743C14.7766 5.81509 14.9474 5.8825 15.0867 6.02183C15.226 6.16116 15.2934 6.33195 15.2934 6.5342V8.66906C15.2934 8.87131 15.226 9.03761 15.0867 9.16794C14.9474 9.29828 14.7766 9.36121 14.5743 9.36121H9.74728V14.377C9.74728 14.5793 9.67986 14.7456 9.54054 14.8759C9.40121 15.0062 9.23042 15.0692 9.02817 15.0692H6.64611C6.45735 15.0736 6.29555 15.0062 6.16071 14.8669Z" fill="white"/>
</svg>
