<?xml version="1.0" standalone="no"?>
<!DOCTYPE svg PUBLIC "-//W3C//DTD SVG 20010904//EN"
 "http://www.w3.org/TR/2001/REC-SVG-20010904/DTD/svg10.dtd">
<svg version="1.0" xmlns="http://www.w3.org/2000/svg"
 width="47.000000pt" height="47.000000pt" viewBox="0 0 47.000000 47.000000"
 preserveAspectRatio="xMidYMid meet">

<g transform="translate(0.000000,47.000000) scale(0.100000,-0.100000)"
fill="#000000" stroke="none">
<path d="M15 437 c-3 -7 -4 -105 -3 -217 l3 -205 220 0 220 0 0 215 0 215
-218 3 c-171 2 -219 0 -222 -11z m242 -84 c-13 -65 -25 -83 -56 -83 -39 0 -61
-9 -61 -26 0 -9 11 -14 31 -14 26 0 30 -3 24 -17 -7 -18 -11 -43 -19 -123 l-4
-45 20 38 c23 45 32 44 18 -1 -15 -56 7 -25 36 48 15 39 29 70 32 70 3 0 14
-8 24 -17 15 -13 21 -14 31 -4 9 10 5 18 -20 40 -39 32 -41 57 -12 118 24 49
34 52 20 7 -5 -16 -12 -44 -15 -61 -5 -27 -2 -33 13 -33 23 0 36 -17 39 -52 3
-20 -5 -32 -28 -50 -18 -13 -36 -23 -41 -23 -15 0 -49 -47 -49 -67 0 -15 -9
-18 -45 -18 -25 0 -48 0 -52 1 -5 0 -7 9 -6 19 1 10 -4 24 -12 30 -21 18 -19
48 5 62 11 7 20 19 20 26 0 7 5 10 10 7 6 -3 10 -1 10 4 0 6 -6 11 -13 11 -8
0 -23 11 -36 23 -20 22 -20 25 -6 37 10 8 15 23 12 36 -3 16 0 21 10 17 7 -3
13 -8 13 -12 0 -4 9 -7 21 -8 13 -1 23 5 26 18 3 11 12 18 22 17 11 -2 17 6
19 25 2 15 8 27 14 27 6 0 8 -11 5 -27z"/>
<path d="M130 125 c0 -8 5 -15 10 -15 6 0 10 7 10 15 0 8 -4 15 -10 15 -5 0
-10 -7 -10 -15z"/>
</g>
</svg>
